<?xml version="1.0"?>
<svg xmlns="http://www.w3.org/2000/svg" viewBox="0 0 303 106" shape-rendering="geometricPrecision">
  <title>Kilo wordmark — geometric rebuild</title>

  <!-- K: vertical bar (pill) + stem extending into chevron as one continuous path -->
  <rect x="8" y="9" width="7" height="88" rx="3.5" ry="3.5" fill="#000"></rect>
  <path d="M 21 52 L 43 52 L 78 12 M 43 52 L 78 92" fill="none" stroke="#000" stroke-width="7" stroke-linecap="round" stroke-linejoin="round"></path>

  
  <rect x="102" y="30" width="7" height="66" rx="3.5" ry="3.5" fill="#000"></rect>
  <rect x="102" y="10" width="7" height="15" rx="3.5" ry="3.5" fill="#FF5C00"></rect>

  <!-- L: vertical → smooth arc → horizontal, single stroked path with round caps -->
  <path d="M 136.5 12.5 V 80.5 A 12 12 0 0 0 148.5 92.5 H 178.5" fill="none" stroke="#000" stroke-width="7" stroke-linecap="round"></path>

  
  <rect x="187" y="89.5" width="16" height="7" rx="3.5" ry="3.5" fill="#FF5C00"></rect>

  
  <path d="M 251.5 11.5 C 282.7 11.5 290.5 19.7 290.5 52.5 C 290.5 85.3 282.7 93.5 251.5 93.5 C 220.3 93.5 212.5 85.3 212.5 52.5 C 212.5 19.7 220.3 11.5 251.5 11.5 Z" fill="none" stroke="#000" stroke-width="7" stroke-linejoin="round"></path>
</svg>